<svg width="104" height="138" viewBox="25 21 104 138" fill="none" xmlns="http://www.w3.org/2000/svg">
<g filter="url(#filter0_d_309_853)">
<rect x="25" y="21" width="104" height="104" rx="52" fill="white"/>
<g clip-path="url(#clip0_309_853)">
<path d="M61.875 43.6125C58.0625 45.0375 54.625 46.3625 54.25 46.5625C53.2375 47.075 52.125 48.25 51.6 49.375C51.0125 50.6125 45 68.7125 45 69.25C45 70.375 45.9375 71.7125 46.9375 71.9875C47.2 72.05 49.7875 72.3 52.7 72.5125L58 72.925V87.125C58 99.5375 58.025 101.35 58.1875 101.587C58.575 102.137 63.5625 103.562 67.2875 104.175C70.925 104.787 72.7625 104.925 77.0625 104.925C81.3625 104.925 83.3875 104.762 86.875 104.175C90.5 103.562 95.4375 102.125 95.8125 101.587C95.975 101.35 96 99.625 96 87.125V72.9375L101.288 72.525C104.188 72.3 106.788 72.0625 107.062 71.9875C108.062 71.7125 109 70.3875 109 69.2375C109 69.0125 107.562 64.5125 105.812 59.25C103.463 52.2125 102.5 49.475 102.15 48.8875C101.588 47.9375 100.588 46.9875 99.6375 46.5125C99.25 46.3125 95.8375 45 92.05 43.575L85.175 41H76.9875H68.8125L61.875 43.6125ZM83.875 43.25C83.875 43.6125 83.3375 45.0125 82.95 45.6875C82.125 47.1 80.2875 48.4125 78.6125 48.8125C76.3 49.35 73.8125 48.6625 72.125 46.9875C71.3 46.175 70.8375 45.4375 70.4125 44.2875C69.8875 42.85 69.1125 43 77 43C83.7375 43 83.875 43 83.875 43.25ZM68.3 44.25C68.4125 44.7 68.7375 45.5375 69.025 46.125C69.45 46.975 69.775 47.4 70.625 48.25C71.825 49.45 72.85 50.1 74.3125 50.5875C75.2 50.8875 75.5 50.925 77 50.925C78.5 50.925 78.8 50.8875 79.6875 50.5875C81.15 50.1 82.175 49.45 83.375 48.25C84.225 47.4 84.55 46.975 84.975 46.125C85.2625 45.5375 85.5875 44.6875 85.7 44.2375L85.9 43.4125L86.8 43.75C87.3125 43.95 87.7 44.175 87.725 44.2875C87.8 44.65 87.025 46.6375 86.4125 47.65C83.6125 52.3375 77.6625 54.2625 72.6625 52.1C69.8625 50.875 67.6 48.4375 66.6 45.5625C66.4 44.975 66.25 44.4 66.275 44.2875C66.3 44.175 66.675 43.95 67.1875 43.75C67.675 43.5625 68.075 43.425 68.075 43.425C68.0875 43.4375 68.1875 43.8 68.3 44.25ZM64.6 45.85C65.8 49.8125 68.9 52.975 72.8875 54.3C74.5875 54.8625 75.9375 55.05 77.675 54.9625C80.05 54.8375 82.225 54.125 84.175 52.825C86.6375 51.1875 88.525 48.675 89.3875 45.875C89.55 45.3625 89.6875 44.9125 89.7 44.9C89.7625 44.8125 98.575 48.175 99 48.4375C99.5625 48.7875 100.3 49.6125 100.6 50.2125C100.737 50.475 102.237 54.8625 103.938 59.975C106.088 66.425 107 69.35 106.95 69.5625C106.913 69.725 106.763 69.925 106.638 70C106.425 70.1 97.45 70.875 96.375 70.875H96V67.25V63.6125L95.6875 63.3125C95.2875 62.9 94.7125 62.9 94.3125 63.3125L94 63.6125V81.975V100.337L92.725 100.725C89.625 101.675 86.5 102.3 82.85 102.712C80.175 103.012 73.825 103.012 71.15 102.712C67.525 102.3 64.6875 101.737 61.5375 100.8L60 100.337V81.975V63.6125L59.675 63.2875C59.4125 63.025 59.275 62.9875 58.9 63.05C58 63.1875 58 63.2125 58 67.2625V70.875H57.6625C56.6125 70.875 47.5625 70.1 47.3625 70C47.2375 69.925 47.0875 69.725 47.05 69.5625C47 69.35 47.9125 66.425 50.0625 59.975C51.7625 54.8625 53.2625 50.475 53.4 50.2125C53.7375 49.5375 54.575 48.65 55.1875 48.3375C55.6875 48.075 63.95 44.9125 64.1875 44.8875C64.2625 44.8875 64.45 45.3125 64.6 45.85Z" fill="#8f8f8f"/>
</g>
</g>
<path d="M47.9262 146.383H45.7487C45.7089 146.101 45.6277 145.851 45.5051 145.632C45.3824 145.41 45.225 145.221 45.0328 145.065C44.8405 144.91 44.6185 144.79 44.3666 144.707C44.118 144.625 43.8479 144.583 43.5562 144.583C43.0292 144.583 42.5702 144.714 42.1791 144.976C41.788 145.234 41.4847 145.612 41.2693 146.109C41.0538 146.603 40.9461 147.203 40.9461 147.909C40.9461 148.635 41.0538 149.245 41.2693 149.739C41.488 150.232 41.7929 150.605 42.184 150.857C42.5751 151.109 43.0276 151.235 43.5413 151.235C43.8296 151.235 44.0964 151.197 44.3417 151.121C44.5903 151.045 44.8107 150.933 45.0029 150.788C45.1952 150.638 45.3543 150.458 45.4802 150.246C45.6095 150.034 45.699 149.792 45.7487 149.52L47.9262 149.53C47.8699 149.997 47.729 150.448 47.5036 150.882C47.2816 151.313 46.9816 151.699 46.6038 152.04C46.2293 152.379 45.7818 152.647 45.2615 152.846C44.7444 153.041 44.1594 153.139 43.5065 153.139C42.5983 153.139 41.7863 152.934 41.0704 152.523C40.3578 152.112 39.7944 151.517 39.3801 150.738C38.9691 149.959 38.7636 149.016 38.7636 147.909C38.7636 146.799 38.9724 145.854 39.39 145.075C39.8076 144.296 40.3744 143.703 41.0903 143.295C41.8062 142.884 42.6116 142.679 43.5065 142.679C44.0964 142.679 44.6433 142.762 45.1471 142.928C45.6542 143.093 46.1033 143.335 46.4944 143.653C46.8855 143.968 47.2037 144.354 47.449 144.812C47.6975 145.269 47.8566 145.793 47.9262 146.383ZM52.3577 153.144C51.8705 153.144 51.4363 153.06 51.0551 152.891C50.674 152.718 50.3724 152.465 50.1503 152.13C49.9316 151.792 49.8222 151.371 49.8222 150.867C49.8222 150.443 49.9001 150.087 50.0558 149.798C50.2116 149.51 50.4237 149.278 50.6922 149.102C50.9607 148.927 51.2656 148.794 51.607 148.705C51.9517 148.615 52.3129 148.552 52.6908 148.516C53.1349 148.469 53.4929 148.426 53.7646 148.386C54.0364 148.343 54.2336 148.28 54.3563 148.197C54.4789 148.115 54.5402 147.992 54.5402 147.83V147.8C54.5402 147.485 54.4408 147.241 54.2419 147.069C54.0464 146.897 53.768 146.81 53.4067 146.81C53.0255 146.81 52.7223 146.895 52.4969 147.064C52.2715 147.23 52.1224 147.438 52.0494 147.69L50.0906 147.531C50.1901 147.067 50.3856 146.666 50.6773 146.328C50.969 145.987 51.3451 145.725 51.8058 145.543C52.2699 145.357 52.8068 145.264 53.4166 145.264C53.8409 145.264 54.2469 145.314 54.6347 145.413C55.0258 145.513 55.3721 145.667 55.6737 145.876C55.9787 146.085 56.219 146.353 56.3946 146.681C56.5703 147.006 56.6581 147.395 56.6581 147.849V153H54.6496V151.941H54.5899C54.4673 152.18 54.3032 152.39 54.0977 152.572C53.8923 152.751 53.6453 152.892 53.357 152.995C53.0686 153.094 52.7355 153.144 52.3577 153.144ZM52.9642 151.683C53.2758 151.683 53.5509 151.621 53.7895 151.499C54.0281 151.373 54.2154 151.204 54.3513 150.991C54.4872 150.779 54.5551 150.539 54.5551 150.271V149.46C54.4888 149.503 54.3977 149.543 54.2817 149.58C54.169 149.613 54.0414 149.644 53.8989 149.674C53.7564 149.701 53.6138 149.725 53.4713 149.749C53.3288 149.768 53.1995 149.787 53.0835 149.803C52.835 149.84 52.6179 149.898 52.4323 149.977C52.2467 150.057 52.1025 150.165 51.9997 150.3C51.897 150.433 51.8456 150.599 51.8456 150.798C51.8456 151.086 51.95 151.306 52.1588 151.459C52.3709 151.608 52.6394 151.683 52.9642 151.683ZM59.0512 153V145.364H61.0697V146.711H61.1592C61.3183 146.263 61.5834 145.911 61.9546 145.652C62.3258 145.393 62.77 145.264 63.287 145.264C63.8107 145.264 64.2565 145.395 64.6244 145.657C64.9923 145.915 65.2375 146.267 65.3602 146.711H65.4397C65.5955 146.273 65.8772 145.924 66.2849 145.662C66.6959 145.397 67.1814 145.264 67.7416 145.264C68.4542 145.264 69.0325 145.491 69.4767 145.945C69.9241 146.396 70.1478 147.036 70.1478 147.864V153H68.0349V148.282C68.0349 147.858 67.9222 147.54 67.6968 147.327C67.4714 147.115 67.1897 147.009 66.8517 147.009C66.4672 147.009 66.1672 147.132 65.9518 147.377C65.7364 147.619 65.6286 147.939 65.6286 148.337V153H63.5754V148.237C63.5754 147.863 63.4677 147.564 63.2522 147.342C63.0401 147.12 62.76 147.009 62.412 147.009C62.1767 147.009 61.9646 147.069 61.7757 147.188C61.5901 147.304 61.4426 147.468 61.3332 147.68C61.2238 147.889 61.1691 148.134 61.1691 148.416V153H59.0512ZM72.5708 153V145.364H74.6887V153H72.5708ZM73.6347 144.379C73.3198 144.379 73.0497 144.275 72.8243 144.066C72.6022 143.854 72.4912 143.6 72.4912 143.305C72.4912 143.014 72.6022 142.763 72.8243 142.555C73.0497 142.343 73.3198 142.237 73.6347 142.237C73.9495 142.237 74.218 142.343 74.4401 142.555C74.6655 142.763 74.7781 143.014 74.7781 143.305C74.7781 143.6 74.6655 143.854 74.4401 144.066C74.218 144.275 73.9495 144.379 73.6347 144.379ZM83.4889 147.541L81.55 147.661C81.5168 147.495 81.4456 147.346 81.3362 147.213C81.2268 147.077 81.0827 146.969 80.9037 146.89C80.728 146.807 80.5175 146.766 80.2723 146.766C79.9442 146.766 79.6674 146.835 79.442 146.974C79.2166 147.11 79.104 147.293 79.104 147.521C79.104 147.704 79.1769 147.858 79.3227 147.984C79.4685 148.11 79.7188 148.211 80.0734 148.287L81.4555 148.565C82.1979 148.718 82.7515 148.963 83.116 149.301C83.4806 149.639 83.6629 150.083 83.6629 150.634C83.6629 151.134 83.5154 151.573 83.2204 151.951C82.9288 152.329 82.5277 152.624 82.0173 152.836C81.5102 153.045 80.9252 153.149 80.2623 153.149C79.2515 153.149 78.4461 152.939 77.8461 152.518C77.2496 152.094 76.8999 151.517 76.7971 150.788L78.8802 150.678C78.9432 150.987 79.0957 151.222 79.3376 151.384C79.5796 151.543 79.8895 151.623 80.2673 151.623C80.6385 151.623 80.9368 151.552 81.1622 151.409C81.3909 151.263 81.5069 151.076 81.5102 150.847C81.5069 150.655 81.4257 150.498 81.2666 150.375C81.1075 150.249 80.8622 150.153 80.5308 150.087L79.2084 149.823C78.4626 149.674 77.9075 149.415 77.5429 149.048C77.1816 148.68 77.001 148.211 77.001 147.641C77.001 147.15 77.1336 146.728 77.3987 146.373C77.6672 146.018 78.0434 145.745 78.5273 145.553C79.0145 145.36 79.5845 145.264 80.2375 145.264C81.202 145.264 81.961 145.468 82.5145 145.876C83.0713 146.283 83.3961 146.839 83.4889 147.541ZM89.2267 153.149C88.4411 153.149 87.765 152.99 87.1982 152.672C86.6348 152.35 86.2006 151.896 85.8957 151.31C85.5908 150.72 85.4383 150.022 85.4383 149.217C85.4383 148.431 85.5908 147.742 85.8957 147.148C86.2006 146.555 86.6298 146.093 87.1833 145.761C87.7401 145.43 88.3931 145.264 89.1421 145.264C89.6459 145.264 90.1149 145.345 90.5491 145.508C90.9866 145.667 91.3677 145.907 91.6926 146.229C92.0207 146.55 92.2759 146.955 92.4582 147.442C92.6405 147.926 92.7316 148.492 92.7316 149.142V149.724H86.2835V148.411H90.738C90.738 148.106 90.6717 147.836 90.5392 147.601C90.4066 147.366 90.2226 147.182 89.9873 147.049C89.7553 146.913 89.4852 146.845 89.1769 146.845C88.8554 146.845 88.5704 146.92 88.3218 147.069C88.0766 147.215 87.8843 147.412 87.7451 147.661C87.6059 147.906 87.5347 148.179 87.5313 148.481V149.729C87.5313 150.107 87.6009 150.433 87.7401 150.708C87.8827 150.983 88.0832 151.195 88.3417 151.344C88.6002 151.494 88.9068 151.568 89.2615 151.568C89.4968 151.568 89.7122 151.535 89.9078 151.469C90.1033 151.402 90.2707 151.303 90.4099 151.17C90.5491 151.038 90.6552 150.875 90.7281 150.683L92.6869 150.812C92.5874 151.283 92.3836 151.694 92.0754 152.045C91.7704 152.393 91.376 152.665 90.8921 152.861C90.4115 153.053 89.8564 153.149 89.2267 153.149ZM98.9255 145.364V146.955H94.3268V145.364H98.9255ZM95.3708 143.534H97.4887V150.653C97.4887 150.849 97.5186 151.001 97.5782 151.111C97.6379 151.217 97.7207 151.291 97.8268 151.335C97.9362 151.378 98.0621 151.399 98.2046 151.399C98.3041 151.399 98.4035 151.391 98.5029 151.374C98.6024 151.354 98.6786 151.339 98.7316 151.33L99.0647 152.906C98.9587 152.939 98.8095 152.977 98.6173 153.02C98.425 153.066 98.1914 153.094 97.9163 153.104C97.4059 153.124 96.9584 153.056 96.574 152.901C96.1928 152.745 95.8962 152.503 95.684 152.175C95.4719 151.847 95.3675 151.432 95.3708 150.932V143.534ZM103.233 153.144C102.745 153.144 102.311 153.06 101.93 152.891C101.549 152.718 101.247 152.465 101.025 152.13C100.807 151.792 100.697 151.371 100.697 150.867C100.697 150.443 100.775 150.087 100.931 149.798C101.087 149.51 101.299 149.278 101.567 149.102C101.836 148.927 102.141 148.794 102.482 148.705C102.827 148.615 103.188 148.552 103.566 148.516C104.01 148.469 104.368 148.426 104.64 148.386C104.911 148.343 105.109 148.28 105.231 148.197C105.354 148.115 105.415 147.992 105.415 147.83V147.8C105.415 147.485 105.316 147.241 105.117 147.069C104.921 146.897 104.643 146.81 104.282 146.81C103.901 146.81 103.597 146.895 103.372 147.064C103.147 147.23 102.997 147.438 102.924 147.69L100.966 147.531C101.065 147.067 101.261 146.666 101.552 146.328C101.844 145.987 102.22 145.725 102.681 145.543C103.145 145.357 103.682 145.264 104.292 145.264C104.716 145.264 105.122 145.314 105.51 145.413C105.901 145.513 106.247 145.667 106.549 145.876C106.854 146.085 107.094 146.353 107.27 146.681C107.445 147.006 107.533 147.395 107.533 147.849V153H105.525V151.941H105.465C105.342 152.18 105.178 152.39 104.973 152.572C104.767 152.751 104.52 152.892 104.232 152.995C103.944 153.094 103.611 153.144 103.233 153.144ZM103.839 151.683C104.151 151.683 104.426 151.621 104.665 151.499C104.903 151.373 105.09 151.204 105.226 150.991C105.362 150.779 105.43 150.539 105.43 150.271V149.46C105.364 149.503 105.273 149.543 105.157 149.58C105.044 149.613 104.916 149.644 104.774 149.674C104.631 149.701 104.489 149.725 104.346 149.749C104.204 149.768 104.075 149.787 103.959 149.803C103.71 149.84 103.493 149.898 103.307 149.977C103.122 150.057 102.977 150.165 102.875 150.3C102.772 150.433 102.721 150.599 102.721 150.798C102.721 151.086 102.825 151.306 103.034 151.459C103.246 151.608 103.514 151.683 103.839 151.683ZM116.28 147.541L114.341 147.661C114.308 147.495 114.237 147.346 114.127 147.213C114.018 147.077 113.874 146.969 113.695 146.89C113.519 146.807 113.309 146.766 113.063 146.766C112.735 146.766 112.458 146.835 112.233 146.974C112.008 147.11 111.895 147.293 111.895 147.521C111.895 147.704 111.968 147.858 112.114 147.984C112.26 148.11 112.51 148.211 112.864 148.287L114.247 148.565C114.989 148.718 115.542 148.963 115.907 149.301C116.272 149.639 116.454 150.083 116.454 150.634C116.454 151.134 116.306 151.573 116.011 151.951C115.72 152.329 115.319 152.624 114.808 152.836C114.301 153.045 113.716 153.149 113.053 153.149C112.042 153.149 111.237 152.939 110.637 152.518C110.041 152.094 109.691 151.517 109.588 150.788L111.671 150.678C111.734 150.987 111.887 151.222 112.129 151.384C112.371 151.543 112.68 151.623 113.058 151.623C113.43 151.623 113.728 151.552 113.953 151.409C114.182 151.263 114.298 151.076 114.301 150.847C114.298 150.655 114.217 150.498 114.058 150.375C113.899 150.249 113.653 150.153 113.322 150.087L111.999 149.823C111.254 149.674 110.698 149.415 110.334 149.048C109.973 148.68 109.792 148.211 109.792 147.641C109.792 147.15 109.925 146.728 110.19 146.373C110.458 146.018 110.834 145.745 111.318 145.553C111.805 145.36 112.376 145.264 113.028 145.264C113.993 145.264 114.752 145.468 115.305 145.876C115.862 146.283 116.187 146.839 116.28 147.541Z" fill="#474747"/>
<defs>
<filter id="filter0_d_309_853" x="0" y="0" width="154" height="154" filterUnits="userSpaceOnUse" color-interpolation-filters="sRGB">
<feFlood flood-opacity="0" result="BackgroundImageFix"/>
<feColorMatrix in="SourceAlpha" type="matrix" values="0 0 0 0 0 0 0 0 0 0 0 0 0 0 0 0 0 0 127 0" result="hardAlpha"/>
<feOffset dy="4"/>
<feGaussianBlur stdDeviation="12.5"/>
<feComposite in2="hardAlpha" operator="out"/>
<feColorMatrix type="matrix" values="0 0 0 0 0 0 0 0 0 0 0 0 0 0 0 0 0 0 0.05 0"/>
<feBlend mode="normal" in2="BackgroundImageFix" result="effect1_dropShadow_309_853"/>
<feBlend mode="normal" in="SourceGraphic" in2="effect1_dropShadow_309_853" result="shape"/>
</filter>
<clipPath id="clip0_309_853">
<rect width="64" height="64" fill="white" transform="translate(45 41)"/>
</clipPath>
</defs>
</svg>
