<svg width="153" height="48" viewBox="0 0 153 48" fill="none" xmlns="http://www.w3.org/2000/svg">
<path d="M0 8C0 3.58172 3.58172 0 8 0L145 0C149.418 0 153 3.58172 153 8V40C153 44.4183 149.418 48 145 48L8 48C3.58172 48 0 44.4183 0 40L0 8Z" fill="#F5F5F5"/>
<path d="M51.1847 22.4375H48.696C48.6506 22.1155 48.5578 21.8295 48.4176 21.5795C48.2775 21.3258 48.0975 21.1098 47.8778 20.9318C47.6581 20.7538 47.4044 20.6174 47.1165 20.5227C46.8324 20.428 46.5237 20.3807 46.1903 20.3807C45.5881 20.3807 45.0634 20.5303 44.6165 20.8295C44.1695 21.125 43.8229 21.5568 43.5767 22.125C43.3305 22.6894 43.2074 23.375 43.2074 24.1818C43.2074 25.0114 43.3305 25.7083 43.5767 26.2727C43.8267 26.8371 44.1752 27.2633 44.6222 27.5511C45.0691 27.839 45.5862 27.983 46.1733 27.983C46.5028 27.983 46.8078 27.9394 47.0881 27.8523C47.3722 27.7652 47.6241 27.6383 47.8438 27.4716C48.0634 27.3011 48.2453 27.0947 48.3892 26.8523C48.5369 26.6098 48.6392 26.3333 48.696 26.0227L51.1847 26.0341C51.1203 26.5682 50.9593 27.0833 50.7017 27.5795C50.4479 28.072 50.1051 28.5133 49.6733 28.9034C49.2453 29.2898 48.7339 29.5966 48.1392 29.8239C47.5483 30.0473 46.8797 30.1591 46.1335 30.1591C45.0956 30.1591 44.1676 29.9242 43.3494 29.4545C42.535 28.9848 41.8911 28.3049 41.4176 27.4148C40.9479 26.5246 40.7131 25.447 40.7131 24.1818C40.7131 22.9129 40.9517 21.8333 41.429 20.9432C41.9063 20.053 42.554 19.375 43.3722 18.9091C44.1903 18.4394 45.1108 18.2045 46.1335 18.2045C46.8078 18.2045 47.4328 18.2992 48.0085 18.4886C48.5881 18.678 49.1013 18.9545 49.5483 19.3182C49.9953 19.678 50.3589 20.1193 50.6392 20.642C50.9233 21.1648 51.1051 21.7633 51.1847 22.4375ZM57.5966 30.1705C56.714 30.1705 55.9508 29.983 55.3068 29.608C54.6667 29.2292 54.1723 28.7027 53.8239 28.0284C53.4754 27.3504 53.3011 26.5644 53.3011 25.6705C53.3011 24.7689 53.4754 23.9811 53.8239 23.3068C54.1723 22.6288 54.6667 22.1023 55.3068 21.7273C55.9508 21.3485 56.714 21.1591 57.5966 21.1591C58.4792 21.1591 59.2405 21.3485 59.8807 21.7273C60.5246 22.1023 61.0208 22.6288 61.3693 23.3068C61.7178 23.9811 61.892 24.7689 61.892 25.6705C61.892 26.5644 61.7178 27.3504 61.3693 28.0284C61.0208 28.7027 60.5246 29.2292 59.8807 29.608C59.2405 29.983 58.4792 30.1705 57.5966 30.1705ZM57.608 28.2955C58.0095 28.2955 58.3447 28.1818 58.6136 27.9545C58.8826 27.7235 59.0852 27.4091 59.2216 27.0114C59.3617 26.6136 59.4318 26.161 59.4318 25.6534C59.4318 25.1458 59.3617 24.6932 59.2216 24.2955C59.0852 23.8977 58.8826 23.5833 58.6136 23.3523C58.3447 23.1212 58.0095 23.0057 57.608 23.0057C57.2027 23.0057 56.8617 23.1212 56.5852 23.3523C56.3125 23.5833 56.1061 23.8977 55.9659 24.2955C55.8295 24.6932 55.7614 25.1458 55.7614 25.6534C55.7614 26.161 55.8295 26.6136 55.9659 27.0114C56.1061 27.4091 56.3125 27.7235 56.5852 27.9545C56.8617 28.1818 57.2027 28.2955 57.608 28.2955ZM64.2159 30V21.2727H66.5227V22.8125H66.625C66.8068 22.3011 67.1098 21.8977 67.5341 21.6023C67.9583 21.3068 68.4659 21.1591 69.0568 21.1591C69.6553 21.1591 70.1648 21.3087 70.5852 21.608C71.0057 21.9034 71.286 22.3049 71.4261 22.8125H71.517C71.6951 22.3125 72.017 21.9129 72.483 21.6136C72.9527 21.3106 73.5076 21.1591 74.1477 21.1591C74.9621 21.1591 75.6231 21.4186 76.1307 21.9375C76.642 22.4527 76.8977 23.1837 76.8977 24.1307V30H74.483V24.608C74.483 24.1231 74.3542 23.7595 74.0966 23.517C73.839 23.2746 73.517 23.1534 73.1307 23.1534C72.6913 23.1534 72.3485 23.2936 72.1023 23.5739C71.8561 23.8504 71.733 24.2159 71.733 24.6705V30H69.3864V24.5568C69.3864 24.1288 69.2633 23.7879 69.017 23.5341C68.7746 23.2803 68.4545 23.1534 68.0568 23.1534C67.7879 23.1534 67.5455 23.2216 67.3295 23.358C67.1174 23.4905 66.9489 23.678 66.8239 23.9205C66.6989 24.1591 66.6364 24.4394 66.6364 24.7614V30H64.2159ZM79.5597 33.2727V21.2727H81.946V22.7386H82.054C82.16 22.5038 82.3134 22.2652 82.5142 22.0227C82.7188 21.7765 82.9839 21.572 83.3097 21.4091C83.6392 21.2424 84.0483 21.1591 84.5369 21.1591C85.1733 21.1591 85.7604 21.3258 86.2983 21.6591C86.8362 21.9886 87.2661 22.4867 87.5881 23.1534C87.91 23.8163 88.071 24.6477 88.071 25.6477C88.071 26.6212 87.9138 27.4432 87.5994 28.1136C87.2888 28.7803 86.8646 29.286 86.3267 29.6307C85.7926 29.9716 85.1941 30.142 84.5312 30.142C84.0616 30.142 83.6619 30.0644 83.3324 29.9091C83.0066 29.7538 82.7396 29.5587 82.5312 29.3239C82.3229 29.0852 82.1638 28.8447 82.054 28.6023H81.9801V33.2727H79.5597ZM81.929 25.6364C81.929 26.1553 82.0009 26.608 82.1449 26.9943C82.2888 27.3807 82.4972 27.6818 82.7699 27.8977C83.0426 28.1098 83.3741 28.2159 83.7642 28.2159C84.1581 28.2159 84.4915 28.108 84.7642 27.892C85.0369 27.6723 85.2434 27.3693 85.3835 26.983C85.5275 26.5928 85.5994 26.1439 85.5994 25.6364C85.5994 25.1326 85.5294 24.6894 85.3892 24.3068C85.2491 23.9242 85.0426 23.625 84.7699 23.4091C84.4972 23.1932 84.1619 23.0852 83.7642 23.0852C83.3703 23.0852 83.0369 23.1894 82.7642 23.3977C82.4953 23.6061 82.2888 23.9015 82.1449 24.2841C82.0009 24.6667 81.929 25.1174 81.929 25.6364ZM90.4347 30V21.2727H92.7812V22.7955H92.8722C93.0313 22.2538 93.2983 21.8447 93.6733 21.5682C94.0483 21.2879 94.4801 21.1477 94.9688 21.1477C95.09 21.1477 95.2206 21.1553 95.3608 21.1705C95.5009 21.1856 95.6241 21.2064 95.7301 21.233V23.3807C95.6165 23.3466 95.4593 23.3163 95.2585 23.2898C95.0578 23.2633 94.8741 23.25 94.7074 23.25C94.3513 23.25 94.0331 23.3277 93.7528 23.483C93.4763 23.6345 93.2566 23.8466 93.0938 24.1193C92.9347 24.392 92.8551 24.7064 92.8551 25.0625V30H90.4347ZM99.9702 30.1648C99.4134 30.1648 98.9171 30.0682 98.4815 29.875C98.0459 29.678 97.7012 29.3883 97.4474 29.0057C97.1974 28.6193 97.0724 28.1383 97.0724 27.5625C97.0724 27.0777 97.1615 26.6705 97.3395 26.3409C97.5175 26.0114 97.7599 25.7462 98.0668 25.5455C98.3736 25.3447 98.7221 25.1932 99.1122 25.0909C99.5062 24.9886 99.919 24.9167 100.351 24.875C100.858 24.822 101.268 24.7727 101.578 24.7273C101.889 24.678 102.114 24.6061 102.254 24.5114C102.394 24.4167 102.464 24.2765 102.464 24.0909V24.0568C102.464 23.697 102.351 23.4186 102.124 23.2216C101.9 23.0246 101.582 22.9261 101.169 22.9261C100.733 22.9261 100.387 23.0227 100.129 23.2159C99.8717 23.4053 99.7012 23.6439 99.6179 23.9318L97.3793 23.75C97.4929 23.2197 97.7164 22.7614 98.0497 22.375C98.383 21.9848 98.813 21.6856 99.3395 21.4773C99.8698 21.2652 100.483 21.1591 101.18 21.1591C101.665 21.1591 102.129 21.2159 102.572 21.3295C103.019 21.4432 103.415 21.6193 103.76 21.858C104.108 22.0966 104.383 22.4034 104.584 22.7784C104.785 23.1496 104.885 23.5947 104.885 24.1136V30H102.589V28.7898H102.521C102.381 29.0625 102.194 29.303 101.959 29.5114C101.724 29.7159 101.442 29.8769 101.112 29.9943C100.783 30.108 100.402 30.1648 99.9702 30.1648ZM100.663 28.4943C101.019 28.4943 101.334 28.4242 101.607 28.2841C101.879 28.1402 102.093 27.947 102.249 27.7045C102.404 27.4621 102.482 27.1875 102.482 26.8807V25.9545C102.406 26.0038 102.302 26.0492 102.169 26.0909C102.04 26.1288 101.894 26.1648 101.732 26.1989C101.569 26.2292 101.406 26.2576 101.243 26.2841C101.08 26.3068 100.932 26.3277 100.8 26.3466C100.516 26.3883 100.268 26.4545 100.055 26.5455C99.8433 26.6364 99.6785 26.7595 99.5611 26.9148C99.4437 27.0663 99.3849 27.2557 99.3849 27.483C99.3849 27.8125 99.5043 28.0644 99.7429 28.2386C99.9853 28.4091 100.292 28.4943 100.663 28.4943ZM107.513 30V21.2727H109.859V22.7955H109.95C110.109 22.2538 110.376 21.8447 110.751 21.5682C111.126 21.2879 111.558 21.1477 112.047 21.1477C112.168 21.1477 112.299 21.1553 112.439 21.1705C112.579 21.1856 112.702 21.2064 112.808 21.233V23.3807C112.695 23.3466 112.537 23.3163 112.337 23.2898C112.136 23.2633 111.952 23.25 111.786 23.25C111.429 23.25 111.111 23.3277 110.831 23.483C110.554 23.6345 110.335 23.8466 110.172 24.1193C110.013 24.392 109.933 24.7064 109.933 25.0625V30H107.513Z" fill="#C92071"/>
</svg>
